<mxfile host="app.diagrams.net" modified="2023-12-20T02:55:20.867Z" agent="Mozilla/5.0 (Windows NT 10.0; Win64; x64) AppleWebKit/537.36 (KHTML, like Gecko) Chrome/120.0.0.0 Safari/537.36" etag="xXU7TAJUqDS0jxM4aXWB" version="22.1.11" type="google">
  <diagram id="C5RBs43oDa-KdzZeNtuy" name="Page-1">
    <mxGraphModel grid="1" page="1" gridSize="10" guides="1" tooltips="1" connect="1" arrows="1" fold="1" pageScale="1" pageWidth="827" pageHeight="1169" math="0" shadow="0">
      <root>
        <mxCell id="WIyWlLk6GJQsqaUBKTNV-0" />
        <mxCell id="WIyWlLk6GJQsqaUBKTNV-1" parent="WIyWlLk6GJQsqaUBKTNV-0" />
        <mxCell id="WIyWlLk6GJQsqaUBKTNV-2" value="" style="rounded=0;html=1;jettySize=auto;orthogonalLoop=1;fontSize=11;endArrow=block;endFill=0;endSize=8;strokeWidth=1;shadow=0;labelBackgroundColor=none;edgeStyle=orthogonalEdgeStyle;" edge="1" parent="WIyWlLk6GJQsqaUBKTNV-1">
          <mxGeometry relative="1" as="geometry">
            <mxPoint x="220" y="120" as="sourcePoint" />
            <mxPoint x="220" y="170" as="targetPoint" />
          </mxGeometry>
        </mxCell>
        <mxCell id="lRofDRcKvyz7DxO0Y3t3-0" value="START" style="ellipse;whiteSpace=wrap;html=1;" vertex="1" parent="WIyWlLk6GJQsqaUBKTNV-1">
          <mxGeometry x="160" y="70" width="120" height="50" as="geometry" />
        </mxCell>
        <mxCell id="lRofDRcKvyz7DxO0Y3t3-2" style="edgeStyle=orthogonalEdgeStyle;rounded=0;orthogonalLoop=1;jettySize=auto;html=1;exitX=0.5;exitY=1;exitDx=0;exitDy=0;" edge="1" parent="WIyWlLk6GJQsqaUBKTNV-1" source="lRofDRcKvyz7DxO0Y3t3-1">
          <mxGeometry relative="1" as="geometry">
            <mxPoint x="223" y="230" as="targetPoint" />
          </mxGeometry>
        </mxCell>
        <mxCell id="lRofDRcKvyz7DxO0Y3t3-1" value="input n" style="shape=parallelogram;perimeter=parallelogramPerimeter;whiteSpace=wrap;html=1;fixedSize=1;" vertex="1" parent="WIyWlLk6GJQsqaUBKTNV-1">
          <mxGeometry x="165" y="170" width="115" height="30" as="geometry" />
        </mxCell>
        <mxCell id="lRofDRcKvyz7DxO0Y3t3-4" style="edgeStyle=orthogonalEdgeStyle;rounded=0;orthogonalLoop=1;jettySize=auto;html=1;exitX=0.5;exitY=1;exitDx=0;exitDy=0;" edge="1" parent="WIyWlLk6GJQsqaUBKTNV-1" source="lRofDRcKvyz7DxO0Y3t3-3">
          <mxGeometry relative="1" as="geometry">
            <mxPoint x="221" y="280" as="targetPoint" />
          </mxGeometry>
        </mxCell>
        <mxCell id="lRofDRcKvyz7DxO0Y3t3-3" value="i=2" style="rounded=0;whiteSpace=wrap;html=1;" vertex="1" parent="WIyWlLk6GJQsqaUBKTNV-1">
          <mxGeometry x="162.5" y="230" width="117.5" height="20" as="geometry" />
        </mxCell>
        <mxCell id="lRofDRcKvyz7DxO0Y3t3-7" style="edgeStyle=orthogonalEdgeStyle;rounded=0;orthogonalLoop=1;jettySize=auto;html=1;exitX=0.5;exitY=1;exitDx=0;exitDy=0;" edge="1" parent="WIyWlLk6GJQsqaUBKTNV-1" source="lRofDRcKvyz7DxO0Y3t3-5">
          <mxGeometry relative="1" as="geometry">
            <mxPoint x="223" y="360" as="targetPoint" />
          </mxGeometry>
        </mxCell>
        <mxCell id="lRofDRcKvyz7DxO0Y3t3-5" value="answer prime" style="rounded=0;whiteSpace=wrap;html=1;" vertex="1" parent="WIyWlLk6GJQsqaUBKTNV-1">
          <mxGeometry x="165" y="280" width="115" height="40" as="geometry" />
        </mxCell>
        <mxCell id="lRofDRcKvyz7DxO0Y3t3-9" style="edgeStyle=orthogonalEdgeStyle;rounded=0;orthogonalLoop=1;jettySize=auto;html=1;exitX=1;exitY=0.5;exitDx=0;exitDy=0;" edge="1" parent="WIyWlLk6GJQsqaUBKTNV-1" source="lRofDRcKvyz7DxO0Y3t3-8">
          <mxGeometry relative="1" as="geometry">
            <mxPoint x="290" y="395" as="targetPoint" />
          </mxGeometry>
        </mxCell>
        <mxCell id="lRofDRcKvyz7DxO0Y3t3-22" style="edgeStyle=orthogonalEdgeStyle;rounded=0;orthogonalLoop=1;jettySize=auto;html=1;exitX=0.5;exitY=1;exitDx=0;exitDy=0;" edge="1" parent="WIyWlLk6GJQsqaUBKTNV-1" source="lRofDRcKvyz7DxO0Y3t3-8">
          <mxGeometry relative="1" as="geometry">
            <mxPoint x="223" y="590" as="targetPoint" />
          </mxGeometry>
        </mxCell>
        <mxCell id="lRofDRcKvyz7DxO0Y3t3-8" value="if&lt;br&gt;i&amp;lt;=n//2?" style="rhombus;whiteSpace=wrap;html=1;" vertex="1" parent="WIyWlLk6GJQsqaUBKTNV-1">
          <mxGeometry x="178.75" y="360" width="87.5" height="70" as="geometry" />
        </mxCell>
        <mxCell id="lRofDRcKvyz7DxO0Y3t3-12" style="edgeStyle=orthogonalEdgeStyle;rounded=0;orthogonalLoop=1;jettySize=auto;html=1;exitX=1;exitY=0.5;exitDx=0;exitDy=0;" edge="1" parent="WIyWlLk6GJQsqaUBKTNV-1" source="lRofDRcKvyz7DxO0Y3t3-10">
          <mxGeometry relative="1" as="geometry">
            <mxPoint x="420" y="395" as="targetPoint" />
          </mxGeometry>
        </mxCell>
        <mxCell id="lRofDRcKvyz7DxO0Y3t3-10" value="rem=n%i" style="rounded=0;whiteSpace=wrap;html=1;" vertex="1" parent="WIyWlLk6GJQsqaUBKTNV-1">
          <mxGeometry x="290" y="370" width="100" height="50" as="geometry" />
        </mxCell>
        <mxCell id="lRofDRcKvyz7DxO0Y3t3-11" value="true" style="text;html=1;align=center;verticalAlign=middle;resizable=0;points=[];autosize=1;strokeColor=none;fillColor=none;" vertex="1" parent="WIyWlLk6GJQsqaUBKTNV-1">
          <mxGeometry x="250" y="348" width="40" height="30" as="geometry" />
        </mxCell>
        <mxCell id="lRofDRcKvyz7DxO0Y3t3-14" style="edgeStyle=orthogonalEdgeStyle;rounded=0;orthogonalLoop=1;jettySize=auto;html=1;exitX=1;exitY=0.5;exitDx=0;exitDy=0;" edge="1" parent="WIyWlLk6GJQsqaUBKTNV-1" source="lRofDRcKvyz7DxO0Y3t3-13">
          <mxGeometry relative="1" as="geometry">
            <mxPoint x="550" y="395" as="targetPoint" />
          </mxGeometry>
        </mxCell>
        <mxCell id="lRofDRcKvyz7DxO0Y3t3-17" style="edgeStyle=orthogonalEdgeStyle;rounded=0;orthogonalLoop=1;jettySize=auto;html=1;exitX=0.5;exitY=1;exitDx=0;exitDy=0;" edge="1" parent="WIyWlLk6GJQsqaUBKTNV-1" source="lRofDRcKvyz7DxO0Y3t3-13">
          <mxGeometry relative="1" as="geometry">
            <mxPoint x="470" y="470" as="targetPoint" />
          </mxGeometry>
        </mxCell>
        <mxCell id="lRofDRcKvyz7DxO0Y3t3-13" value="if rem not &lt;br&gt;equal &lt;br&gt;to 0?" style="rhombus;whiteSpace=wrap;html=1;" vertex="1" parent="WIyWlLk6GJQsqaUBKTNV-1">
          <mxGeometry x="420" y="355" width="100" height="80" as="geometry" />
        </mxCell>
        <mxCell id="lRofDRcKvyz7DxO0Y3t3-15" value="i=i+1" style="rounded=0;whiteSpace=wrap;html=1;" vertex="1" parent="WIyWlLk6GJQsqaUBKTNV-1">
          <mxGeometry x="550" y="365" width="80" height="55" as="geometry" />
        </mxCell>
        <mxCell id="lRofDRcKvyz7DxO0Y3t3-16" value="true" style="text;html=1;align=center;verticalAlign=middle;resizable=0;points=[];autosize=1;strokeColor=none;fillColor=none;" vertex="1" parent="WIyWlLk6GJQsqaUBKTNV-1">
          <mxGeometry x="510" y="368" width="40" height="30" as="geometry" />
        </mxCell>
        <mxCell id="lRofDRcKvyz7DxO0Y3t3-19" style="edgeStyle=orthogonalEdgeStyle;rounded=0;orthogonalLoop=1;jettySize=auto;html=1;exitX=0.5;exitY=1;exitDx=0;exitDy=0;" edge="1" parent="WIyWlLk6GJQsqaUBKTNV-1" source="lRofDRcKvyz7DxO0Y3t3-18">
          <mxGeometry relative="1" as="geometry">
            <mxPoint x="474" y="560" as="targetPoint" />
          </mxGeometry>
        </mxCell>
        <mxCell id="lRofDRcKvyz7DxO0Y3t3-18" value="answer=not prime" style="rounded=0;whiteSpace=wrap;html=1;" vertex="1" parent="WIyWlLk6GJQsqaUBKTNV-1">
          <mxGeometry x="414" y="470" width="120" height="60" as="geometry" />
        </mxCell>
        <mxCell id="lRofDRcKvyz7DxO0Y3t3-24" style="edgeStyle=orthogonalEdgeStyle;rounded=0;orthogonalLoop=1;jettySize=auto;html=1;exitX=0.5;exitY=1;exitDx=0;exitDy=0;entryX=1;entryY=0.5;entryDx=0;entryDy=0;" edge="1" parent="WIyWlLk6GJQsqaUBKTNV-1" source="lRofDRcKvyz7DxO0Y3t3-20" target="lRofDRcKvyz7DxO0Y3t3-23">
          <mxGeometry relative="1" as="geometry" />
        </mxCell>
        <mxCell id="lRofDRcKvyz7DxO0Y3t3-20" value="end while loop" style="rounded=0;whiteSpace=wrap;html=1;" vertex="1" parent="WIyWlLk6GJQsqaUBKTNV-1">
          <mxGeometry x="414" y="560" width="120" height="60" as="geometry" />
        </mxCell>
        <mxCell id="lRofDRcKvyz7DxO0Y3t3-25" style="edgeStyle=orthogonalEdgeStyle;rounded=0;orthogonalLoop=1;jettySize=auto;html=1;exitX=0.5;exitY=1;exitDx=0;exitDy=0;" edge="1" parent="WIyWlLk6GJQsqaUBKTNV-1" source="lRofDRcKvyz7DxO0Y3t3-23">
          <mxGeometry relative="1" as="geometry">
            <mxPoint x="225" y="680" as="targetPoint" />
          </mxGeometry>
        </mxCell>
        <mxCell id="lRofDRcKvyz7DxO0Y3t3-23" value="output answer" style="rounded=0;whiteSpace=wrap;html=1;" vertex="1" parent="WIyWlLk6GJQsqaUBKTNV-1">
          <mxGeometry x="165" y="590" width="120" height="60" as="geometry" />
        </mxCell>
        <mxCell id="lRofDRcKvyz7DxO0Y3t3-26" value="end" style="ellipse;whiteSpace=wrap;html=1;" vertex="1" parent="WIyWlLk6GJQsqaUBKTNV-1">
          <mxGeometry x="165" y="680" width="115" height="40" as="geometry" />
        </mxCell>
        <mxCell id="lRofDRcKvyz7DxO0Y3t3-27" value="false" style="text;html=1;align=center;verticalAlign=middle;resizable=0;points=[];autosize=1;strokeColor=none;fillColor=none;" vertex="1" parent="WIyWlLk6GJQsqaUBKTNV-1">
          <mxGeometry x="465" y="428" width="50" height="30" as="geometry" />
        </mxCell>
        <mxCell id="lRofDRcKvyz7DxO0Y3t3-28" value="false" style="text;html=1;align=center;verticalAlign=middle;resizable=0;points=[];autosize=1;strokeColor=none;fillColor=none;" vertex="1" parent="WIyWlLk6GJQsqaUBKTNV-1">
          <mxGeometry x="215" y="428" width="50" height="30" as="geometry" />
        </mxCell>
      </root>
    </mxGraphModel>
  </diagram>
</mxfile>
